<?xml version="1.0" standalone="no"?>
<svg xmlns="http://www.w3.org/2000/svg" class="icon" viewBox="0 0 1024 1024">
  <path d="M896 185.34H691.2v-54.27a38.91 38.91 0 00-38.4-38.4H371.2a38.91 38.91 0 00-38.4 38.4v54.27H128a25.6 25.6 0 000 51.2h47.1l23.04 657.41a38.91 38.91 0 0038.4 37.38h550.92a38.91 38.91 0 0038.4-37.38l23.04-657.4H896a25.6 25.6 0 000-51.2zm-512-41.47h256v41.47H384zm391.17 736.26H248.83L226.3 236.54h571.4zm-51.2-159.23a25.6 25.6 0 010 36.35 24.58 24.58 0 01-35.84 0L512 583.17 337.92 757.25a24.58 24.58 0 01-35.84 0 25.6 25.6 0 010-36.35l173.57-173.57-173.57-174.08a25.6 25.6 0 010-36.35 25.6 25.6 0 0135.84 0L512 512l174.08-174.08a25.6 25.6 0 0135.84 0 25.6 25.6 0 010 36.35L548.35 548.35z"></path>
</svg>
