<?xml version="1.0" standalone="no"?>
<svg xmlns="http://www.w3.org/2000/svg" class="icon" viewBox="0 0 1024 1024">
	<path d="M861.87 550.4c-21.34 0-34.14 17.07-34.14 34.13V768c0 29.87-25.6 51.2-55.46 51.2H256c-29.87 0-55.47-25.6-55.47-51.2V251.73c0-29.86 25.6-51.2 55.47-51.2h196.27c21.33 0 34.13-17.06 34.13-34.13 0-21.33-17.07-34.13-34.13-34.13H256c-68.27-4.27-128 51.2-128 119.46V768c0 72.53 59.73 128 128 128h512c72.53 0 128-55.47 128-123.73V588.8c0-21.33-17.07-38.4-34.13-38.4z" />
	<path d="M610.13 243.2h115.2L439.47 537.6c-12.8 12.8-12.8 38.4 0 51.2 8.53 8.53 17.06 8.53 25.6 8.53 8.53 0 17.06-4.26 25.6-12.8l285.86-294.4V409.6c0 21.33 17.07 34.13 34.14 34.13 21.33 0 34.13-17.06 34.13-34.13V264.53c0-25.6-12.8-51.2-29.87-68.26-8.53-17.07-29.86-25.6-55.46-25.6H610.13c-21.33 0-34.13 17.06-34.13 34.13s17.07 38.4 34.13 38.4z" />
</svg>
