<?xml version="1.0" standalone="no"?>
<svg xmlns="http://www.w3.org/2000/svg" class="icon" viewBox="0 0 1024 1024">
	<path d="M861.87 499.2c-21.34 0-34.14 17.07-34.14 34.13V768c0 29.87-25.6 51.2-55.46 51.2H256c-29.87 0-55.47-25.6-55.47-51.2V251.73c0-29.86 25.6-51.2 55.47-51.2h247.47c21.33 0 34.13-17.06 34.13-34.13 0-21.33-17.07-34.13-34.13-34.13H256c-68.27-4.27-128 51.2-128 119.46V768c0 72.53 59.73 128 128 128h512c72.53 0 128-55.47 128-123.73V537.6c0-21.33-17.07-38.4-34.13-38.4z" />
	<path d="M460.8 401.07c0-21.34-17.07-34.14-34.13-34.14s-38.4 17.07-38.4 34.14v145.06c0 25.6 12.8 51.2 29.86 68.27 17.07 17.07 38.4 25.6 64 25.6h149.34c21.33 0 34.13-17.07 34.13-34.13 0-21.34-17.07-34.14-34.13-34.14h-115.2l285.86-294.4c12.8-12.8 12.8-38.4 0-51.2-12.8-12.8-38.4-12.8-51.2 0l-285.86 294.4-4.27-119.46z" />
</svg>
